<?xml version="1.0" standalone="no"?>
<!DOCTYPE svg PUBLIC "-//W3C//DTD SVG 20010904//EN"
 "http://www.w3.org/TR/2001/REC-SVG-20010904/DTD/svg10.dtd">
<svg version="1.0" xmlns="http://www.w3.org/2000/svg"
 width="6667.000000pt" height="4167.000000pt" viewBox="0 0 6667.000000 4167.000000"
 preserveAspectRatio="xMidYMid meet">

<g transform="translate(0.000000,4167.000000) scale(0.100000,-0.100000)"
fill="#000000" stroke="none">
<path d="M0 39174 c0 -2226 2 -2496 15 -2490 27 10 364 74 505 95 334 51 921
89 1146 75 100 -7 110 -11 91 -41 -6 -9 -2 -13 12 -13 22 0 26 -15 14 -47 -6
-15 -8 -13 -13 11 l-5 29 -20 -38 c-15 -28 -17 -39 -7 -42 42 -15 -27 -22
-241 -23 -458 -1 -925 -52 -1367 -148 l-125 -27 -3 -4840 -2 -4840 112 7 c176
10 567 9 743 -2 972 -62 1874 -331 2701 -806 497 -284 887 -585 1309 -1008
223 -224 421 -447 419 -472 -1 -7 3 -12 8 -11 6 1 13 -4 16 -12 3 -9 0 -11 -8
-6 -9 5 -11 4 -6 -4 4 -6 12 -9 17 -5 6 3 13 -3 16 -15 3 -11 9 -19 13 -16 5
3 11 2 14 -3 9 -16 -29 -9 -42 7 -11 14 -11 14 -6 -2 4 -10 3 -17 -2 -16 -22
4 -57 -2 -50 -8 4 -4 24 -6 44 -5 28 2 33 0 22 -7 -8 -6 -25 -11 -36 -11 -12
0 -25 -7 -28 -16 -6 -15 -8 -15 -24 -2 -31 27 -42 30 -35 11 3 -10 -10 2 -30
27 -20 24 -33 48 -31 52 3 5 1 7 -4 6 -5 -2 -49 42 -97 97 -238 270 -631 636
-910 846 -946 713 -2032 1121 -3220 1209 -156 11 -656 13 -808 3 l-97 -6 0
-13334 0 -13333 33335 0 33335 0 -1 15558 c-1 8556 -4 15547 -7 15536 -6 -20
-17 -13 -112 73 -492 444 -1116 664 -1766 623 -608 -39 -1147 -288 -1575 -726
-253 -261 -442 -569 -553 -905 -42 -127 -96 -344 -96 -386 0 -20 -8 -23 -137
-48 -40 -8 -40 -15 -8 158 145 784 663 1462 1390 1818 245 119 478 192 755
236 163 25 577 25 740 0 272 -43 509 -116 745 -231 216 -105 391 -219 583
-382 l42 -37 0 5192 0 5191 -33335 0 -33335 0 0 -2496z m9180 1657 c0 -13 10
-21 33 -26 17 -4 26 -9 19 -12 -8 -3 -5 -10 10 -23 12 -10 28 -15 36 -13 10 4
10 0 3 -18 -19 -44 -70 -273 -88 -389 -22 -141 -24 -522 -5 -645 75 -470 240
-854 513 -1192 153 -190 403 -408 614 -536 689 -417 1541 -457 2270 -107 118
57 285 156 356 212 40 31 54 34 65 16 4 -6 3 -8 -4 -4 -6 3 -13 2 -16 -3 -7
-11 13 -9 32 2 7 5 12 4 12 -2 0 -6 3 -10 8 -10 18 3 32 -2 32 -12 0 -5 -6 -7
-12 -3 -7 4 -5 -2 5 -14 16 -17 47 -21 47 -5 0 3 -7 2 -16 -1 -8 -3 -12 -2 -9
4 3 5 16 8 28 6 12 -3 26 -5 30 -5 5 -1 5 -6 1 -12 -4 -8 -9 -7 -15 2 -5 8 -9
11 -10 7 -1 -5 -3 -12 -4 -18 -1 -5 -3 -15 -4 -20 0 -6 -9 -10 -18 -8 -10 2
-18 -3 -18 -10 0 -7 -6 -17 -14 -22 -18 -11 20 -99 200 -460 370 -742 834
-1419 1406 -2050 178 -197 554 -567 746 -735 876 -764 1848 -1340 2915 -1726
90 -32 170 -59 178 -59 7 0 39 24 70 53 91 86 313 237 348 237 9 0 13 -14 11
-45 -1 -25 2 -45 7 -45 5 0 4 -10 -3 -21 -6 -12 -7 -19 -1 -15 5 3 13 -2 16
-11 4 -9 1 -20 -6 -24 -63 -35 -211 -152 -296 -234 -365 -350 -553 -850 -503
-1337 31 -295 120 -542 282 -778 255 -373 651 -623 1098 -696 116 -19 135 -27
127 -60 -4 -13 -2 -24 3 -24 6 0 8 -7 5 -15 -4 -9 0 -15 7 -15 11 0 11 -3 -1
-10 -13 -9 -13 -10 0 -10 13 0 13 -1 0 -10 -11 -7 -11 -10 -2 -10 7 0 10 -5 6
-11 -16 -27 -308 21 -469 76 -615 211 -1068 726 -1196 1361 -27 135 -37 435
-20 570 43 323 158 613 337 851 l63 84 -27 10 c-15 6 -65 24 -112 41 -399 141
-919 379 -1335 611 -1026 571 -1952 1349 -2710 2277 -469 574 -890 1244 -1204
1918 l-94 202 -51 -30 c-182 -109 -426 -214 -621 -268 -235 -66 -429 -92 -690
-92 -413 0 -762 81 -1128 262 -726 360 -1233 1038 -1374 1838 -34 196 -43 520
-19 725 24 207 76 433 123 532 16 34 33 36 33 4z m-2465 -2491 c612 -52 1154
-240 1649 -574 787 -529 1313 -1345 1472 -2284 26 -153 30 -222 14 -222 -5 0
-7 6 -5 13 4 9 -12 12 -63 11 l-69 0 -11 40 c-6 23 -18 86 -28 141 -220 1303
-1232 2361 -2529 2644 -245 54 -364 65 -690 65 -333 1 -427 -8 -685 -61 -916
-188 -1718 -779 -2191 -1612 -29 -51 -58 -95 -64 -97 -5 -2 -26 0 -45 5 -24 5
-42 3 -57 -6 -19 -13 -22 -12 -28 7 -3 11 -11 18 -16 15 -16 -10 -10 3 45 108
188 363 494 739 824 1016 465 388 1029 651 1612 750 100 17 160 24 370 44 82
8 384 6 495 -3z m6310 -209 c3 -5 2 -12 -3 -15 -5 -3 -9 1 -9 9 0 17 3 19 12
6z m-11205 -1304 c10 -4 8 -6 -7 -6 -12 -1 -24 3 -27 8 -7 11 6 24 13 13 3 -5
13 -12 21 -15z m10016 -1276 c70 -125 76 -140 95 -245 116 -657 393 -1268 815
-1796 138 -172 430 -465 604 -604 416 -332 868 -567 1379 -717 131 -38 455
-109 499 -109 12 0 73 -29 135 -63 61 -35 145 -81 185 -102 40 -21 71 -39 70
-41 -2 -1 -57 2 -123 7 -1533 121 -2867 1089 -3468 2515 -163 387 -279 873
-302 1259 l-6 100 21 -35 c12 -19 55 -95 96 -169z m-1421 -2108 c-8 -7 -18
-13 -24 -13 -6 0 -11 -20 -11 -46 0 -33 -5 -51 -17 -60 -17 -13 -17 -14 2 -9
11 3 7 -1 -10 -9 -16 -8 -77 -19 -135 -26 -242 -27 -526 -107 -769 -218 l-132
-60 21 31 c11 18 44 72 72 120 28 49 61 95 72 102 30 20 245 92 356 120 177
45 416 81 542 82 39 0 44 -2 33 -14z m-2178 -1535 c-89 -161 -184 -421 -232
-633 -229 -1026 170 -2071 1028 -2693 52 -38 116 -81 141 -96 25 -15 46 -31
46 -37 0 -6 5 -7 10 -4 6 3 10 1 10 -4 0 -6 -6 -11 -14 -11 -8 0 -18 -5 -22
-11 -4 -8 1 -9 17 -4 23 7 23 6 5 -8 -13 -9 -17 -20 -12 -32 3 -10 4 -32 0
-51 -5 -26 -10 -32 -26 -29 -12 3 -28 11 -38 20 -9 8 -20 15 -24 15 -13 0
-203 128 -296 201 -130 100 -335 302 -437 429 -225 280 -369 544 -479 875
-185 562 -187 1144 -4 1727 l40 126 98 84 c53 45 124 109 157 140 33 32 62 58
63 58 2 0 -12 -28 -31 -62z m2729 -2614 c-10 -7 -15 -17 -12 -23 9 -14 -4 -62
-15 -55 -5 3 -9 0 -9 -6 0 -6 -5 -8 -10 -5 -6 4 -7 11 -4 17 5 7 2 8 -7 3 -12
-8 -12 -6 0 9 11 13 16 14 22 4 5 -7 9 -10 9 -6 0 3 3 14 7 24 5 12 3 15 -6 9
-10 -6 -11 -3 -2 14 7 11 16 21 22 21 6 0 7 5 3 12 -5 7 -3 8 6 3 10 -6 9 -11
-4 -21z m5 -83 c-9 -6 -11 -16 -6 -27 7 -18 8 -18 15 1 9 22 13 14 11 -25 l-1
-25 15 25 16 25 -6 -30 -6 -30 21 25 c19 22 20 22 11 3 -6 -12 -19 -27 -29
-32 -9 -6 -12 -11 -5 -11 7 0 -16 -46 -49 -102 -266 -449 -467 -998 -557
-1528 -40 -233 -53 -385 -58 -672 -6 -304 3 -476 38 -728 189 -1357 992 -2557
2187 -3263 963 -571 2154 -757 3263 -511 262 57 508 135 772 243 53 22 95 34
91 28 -3 -7 1 -4 10 7 16 20 49 15 41 -7 -3 -7 6 -34 20 -61 14 -26 23 -52 20
-56 -13 -21 -289 -131 -500 -200 -1497 -484 -3172 -175 -4375 809 -326 267
-616 572 -852 896 -597 820 -912 1837 -885 2860 21 798 240 1574 632 2240 88
150 89 152 108 137 10 -9 18 -8 33 3 10 8 24 14 29 15 6 0 4 -4 -4 -9z m49789
-51 c0 -5 -2 -10 -4 -10 -3 0 -8 5 -11 10 -3 6 -1 10 4 10 6 0 11 -4 11 -10z
m-68 -80 c-5 -58 -22 -68 -22 -12 0 29 13 62 25 62 0 0 -2 -22 -3 -50z m58 40
c18 -12 2 -12 -25 0 -13 6 -15 9 -5 9 8 0 22 -4 30 -9z m-113 -18 c1 -12 -9
-23 -25 -30 l-27 -11 29 6 c24 5 28 3 23 -10 -3 -9 -2 -19 4 -22 5 -4 7 -9 5
-13 -7 -11 58 -8 67 3 4 6 6 0 4 -13 -5 -33 -21 -46 -37 -27 -7 8 -18 15 -24
15 -6 0 -4 -5 4 -10 10 -6 11 -10 3 -10 -7 0 -13 -4 -13 -10 0 -5 8 -7 18 -4
9 3 5 -2 -11 -11 -15 -9 -32 -13 -37 -10 -5 3 -12 -1 -17 -8 -4 -8 -75 -46
-156 -86 -1161 -565 -2258 -1443 -3097 -2481 -1035 -1281 -1700 -2806 -1930
-4429 -16 -113 -34 -262 -40 -331 -7 -69 -14 -130 -15 -137 -3 -8 -27 -4 -81
13 -42 13 -78 25 -81 27 -2 2 6 85 17 183 259 2228 1270 4223 2918 5760 617
576 1366 1100 2092 1465 96 48 182 89 190 91 8 2 17 6 20 10 3 4 48 28 100 52
52 25 95 45 95 46 1 0 1 -8 2 -18z m130 -86 c0 -8 -6 -12 -15 -8 -11 4 -13 1
-7 -8 6 -9 4 -11 -5 -5 -10 6 -9 11 5 22 23 16 22 16 22 -1z m-51502 -616 c-3
-5 -12 -10 -18 -10 -7 0 -6 4 3 10 19 12 23 12 15 0z m-1191 -849 c354 -476
576 -1052 636 -1651 20 -202 9 -705 -17 -770 -3 -8 -6 -18 -5 -22 1 -3 -6 -5
-16 -3 -9 2 -20 4 -24 4 -5 1 -8 8 -8 16 0 15 -16 20 -55 17 -15 -2 -17 0 -6
7 11 7 9 10 -10 13 -24 3 -24 4 -19 88 3 47 5 207 4 355 -1 225 -4 294 -23
415 -77 506 -259 962 -542 1362 -38 53 -69 101 -69 107 0 5 14 46 31 91 36 95
30 96 123 -29z m-2683 -3118 c13 -17 13 -17 -6 -3 -11 8 -22 16 -24 17 -2 2 0
3 6 3 6 0 17 -8 24 -17z m-124 -68 c0 -8 -4 -12 -9 -9 -5 3 -6 10 -3 15 9 13
12 11 12 -6z m11523 -1740 c0 -2 -10 -9 -22 -15 -22 -11 -22 -10 -4 4 21 17
26 19 26 11z m30 -105 c0 -5 -5 -10 -11 -10 -5 0 -7 5 -4 10 3 6 8 10 11 10 2
0 4 -4 4 -10z m-6 -31 c-4 -8 1 -9 17 -4 27 8 24 3 -8 -14 -18 -9 -21 -8 -18
7 5 23 4 22 11 22 3 0 2 -5 -2 -11z m-12135 -1809 c624 -33 1157 -170 1706
-440 315 -154 534 -293 807 -513 783 -628 1323 -1507 1532 -2497 l22 -104 65
-13 c472 -96 1081 -107 1569 -29 47 8 92 15 100 15 8 1 28 2 45 4 16 1 30 -3
30 -9 0 -6 8 -18 18 -28 9 -10 17 -22 17 -27 0 -5 6 -9 14 -9 8 0 18 -5 21
-10 4 -7 -3 -9 -22 -5 l-28 5 29 -11 c21 -9 25 -14 15 -20 -10 -6 -7 -9 11
-10 23 0 23 -1 5 -9 -30 -13 -47 -12 -39 3 4 6 -1 5 -12 -4 -20 -18 -186 -48
-409 -75 -178 -21 -641 -30 -835 -15 -170 13 -338 33 -470 56 -47 8 -87 15
-90 15 -3 0 0 -46 7 -102 20 -174 38 -607 26 -619 -8 -8 -11 -6 -10 6 1 12 -8
21 -28 26 -56 16 -95 19 -95 8 0 -6 -6 -5 -13 3 -11 10 -16 68 -20 228 -31
1087 -531 2172 -1342 2910 -379 345 -774 599 -1218 784 -787 327 -1647 409
-2483 236 -594 -124 -1163 -382 -1647 -748 -274 -206 -564 -488 -765 -742 -68
-85 -136 -172 -153 -192 -16 -20 -29 -41 -29 -47 0 -13 -35 -32 -44 -24 -3 3
-6 11 -6 17 0 6 5 4 10 -4 9 -14 11 -11 10 17 0 4 -14 6 -30 5 -16 -2 -38 2
-49 8 -17 9 -21 8 -21 -5 0 -9 9 -15 24 -15 14 0 28 -5 32 -12 5 -8 2 -9 -10
-5 -10 4 -26 7 -37 7 -13 0 -19 7 -19 24 0 14 -5 28 -10 31 -16 10 29 67 48
60 11 -4 12 -2 4 8 -8 10 9 40 74 127 245 328 566 649 896 894 739 548 1573
827 2553 854 28 1 137 -3 244 -8z m47517 -799 c0 -11 -4 -17 -8 -15 -4 3 -8 0
-8 -5 0 -19 30 -12 31 7 1 16 2 16 6 -1 2 -9 9 -15 14 -11 5 3 9 2 8 -3 -2
-15 13 -53 23 -53 5 0 3 10 -3 22 -10 19 -7 18 22 -7 l34 -30 -36 -145 c-57
-225 -73 -353 -73 -590 0 -144 5 -241 17 -325 78 -533 307 -994 677 -1365 189
-188 387 -329 635 -451 252 -123 508 -198 784 -230 142 -16 515 -7 641 16 397
71 702 201 1060 453 13 9 21 11 16 5 -7 -12 5 -18 27 -14 5 1 6 -3 2 -8 -3 -7
-15 -7 -30 -1 -16 6 -27 6 -31 -2 -4 -6 -3 -8 3 -5 5 3 22 0 37 -8 15 -8 42
-14 60 -13 18 1 41 -4 52 -10 10 -6 13 -12 7 -12 -7 0 -12 -3 -12 -7 3 -20 -2
-31 -17 -37 -8 -3 -13 -2 -10 2 3 5 -1 9 -8 9 -8 0 -12 -7 -8 -15 3 -8 -3 -21
-12 -28 -16 -11 -12 -24 53 -168 298 -657 707 -1321 1176 -1906 374 -468 837
-940 1300 -1327 726 -606 1560 -1106 2426 -1454 156 -62 352 -136 436 -163
l52 -17 93 79 c103 86 181 141 273 193 42 23 56 28 45 14 -14 -17 -13 -18 1
-13 14 5 17 0 15 -28 -1 -19 2 -34 7 -34 5 0 8 -10 7 -22 -4 -40 0 -48 18 -42
9 3 -2 -6 -26 -20 -24 -14 -85 -57 -135 -95 -540 -406 -778 -1079 -612 -1731
26 -105 53 -178 110 -297 220 -463 652 -801 1155 -903 54 -11 112 -20 128 -20
17 0 37 -7 45 -15 8 -8 18 -11 22 -7 4 4 6 -5 3 -20 -3 -15 -1 -29 4 -30 15
-5 17 -89 1 -95 -25 -10 -205 18 -338 52 -666 171 -1166 699 -1312 1384 -25
116 -27 145 -28 356 0 202 3 244 23 345 56 277 167 530 326 741 l55 72 -217
82 c-1719 647 -3199 1777 -4282 3269 -352 485 -697 1077 -926 1588 -25 57 -49
106 -53 111 -4 4 -58 -22 -119 -57 -400 -228 -853 -338 -1327 -323 -378 13
-706 94 -1041 257 -508 249 -926 674 -1175 1194 -70 146 -147 372 -183 537
-89 403 -73 868 45 1268 38 129 55 166 55 122z m-51342 -1149 c3 -5 -1 -9 -9
-9 -8 0 -12 4 -9 9 3 4 7 8 9 8 2 0 6 -4 9 -8z m-1 -40 c-5 -11 -7 -11 -14 0
-8 12 -13 4 -10 -15 1 -5 -3 -6 -9 -2 -8 5 -8 11 -1 19 15 17 40 16 34 -2z
m49067 -1336 c649 -90 1213 -331 1715 -733 142 -113 407 -378 519 -518 323
-406 541 -847 661 -1340 40 -167 77 -382 71 -416 -2 -13 -5 -28 -5 -33 -1 -5
-19 -6 -41 -3 -30 4 -43 1 -51 -11 -9 -15 -10 -14 -5 3 6 19 6 19 -8 1 -28
-35 -41 -12 -55 90 -61 465 -248 956 -514 1354 -112 167 -222 304 -367 454
-311 321 -621 542 -1011 721 -152 70 -462 174 -624 210 -579 129 -1181 102
-1732 -76 -424 -138 -793 -345 -1138 -640 -119 -102 -327 -317 -427 -442 -98
-123 -259 -364 -316 -474 -24 -46 -48 -83 -53 -83 -6 0 -7 5 -4 10 3 6 -4 10
-17 10 -13 0 -30 6 -37 13 -9 7 -11 7 -8 1 4 -7 0 -15 -9 -18 -8 -3 -12 -2 -9
4 9 14 -9 12 -23 -2 -9 -9 -12 -8 -12 5 0 9 -7 17 -14 17 -28 0 95 226 232
425 532 776 1345 1297 2266 1450 83 14 194 29 246 34 143 14 633 6 770 -13z
m-5078 -1487 c15 -14 14 -16 -13 -16 -20 0 -26 3 -17 9 8 5 1 6 -17 2 -37 -8
-45 -14 -18 -14 24 0 47 -24 40 -42 -3 -7 -6 -4 -6 7 -1 17 -4 16 -21 -10 -11
-16 -19 -38 -16 -47 3 -12 -1 -15 -13 -11 -15 4 -15 3 0 -9 13 -11 -26 -13
-241 -15 -1187 -7 -2351 -334 -3368 -947 -1478 -890 -2558 -2318 -3006 -3974
-331 -1220 -309 -2503 61 -3720 43 -140 49 -153 67 -148 68 19 332 68 451 83
194 24 605 24 800 -1 801 -101 1484 -433 2040 -991 97 -96 302 -330 309 -352
1 -1 55 12 121 28 476 117 879 168 1401 176 453 7 715 -10 1109 -73 1465 -233
2803 -998 3769 -2154 95 -113 152 -196 106 -155 -11 10 -17 22 -14 26 3 5 -3
6 -12 2 -10 -4 -15 -2 -11 4 3 5 -1 10 -9 10 -9 0 -11 -4 -5 -10 11 -11 2 -49
-10 -41 -5 3 -26 0 -47 -7 -32 -10 -34 -13 -17 -20 19 -7 19 -8 -1 -8 -16 -1
-47 29 -112 106 -233 279 -577 613 -870 847 -870 693 -1905 1129 -3002 1265
-292 36 -449 45 -775 45 -344 -1 -556 -15 -860 -59 -251 -36 -645 -118 -645
-134 0 -4 14 -29 32 -57 333 -523 518 -1107 545 -1726 6 -146 6 -148 -15 -148
-12 0 -33 5 -47 12 -22 10 -28 9 -35 -2 -7 -12 -10 -11 -16 5 -7 18 -8 18 -15
-1 -7 -17 -8 -17 -8 4 -1 12 -5 22 -10 22 -5 0 -12 55 -15 123 -35 603 -225
1173 -556 1667 -165 246 -449 554 -675 733 -521 413 -1122 651 -1784 708 -175
15 -527 7 -691 -16 -719 -99 -1344 -401 -1859 -900 -131 -127 -261 -272 -350
-392 -29 -40 -58 -70 -64 -66 -6 3 -7 1 -3 -5 9 -15 -35 -74 -50 -68 -7 3 -20
-2 -31 -10 -17 -14 -16 -14 5 -4 12 6 22 8 22 5 0 -3 0 -8 0 -12 0 -4 -8 -8
-17 -8 -9 0 -18 -6 -21 -14 -3 -9 0 -11 8 -6 9 5 11 4 6 -4 -13 -20 -28 0 -22
30 4 21 2 27 -8 23 -7 -3 -20 1 -27 8 -12 11 -59 21 -59 12 0 -2 12 -10 28
-19 26 -15 26 -16 2 -9 -53 14 -52 21 20 128 393 590 1022 1074 1702 1311 56
20 104 37 105 39 2 2 -22 88 -52 192 -131 441 -213 864 -262 1344 -26 253 -26
1011 0 1255 27 254 64 509 103 705 325 1646 1225 3087 2574 4121 1176 902
2648 1394 4146 1385 196 -1 233 -3 246 -17z m33 1 c3 -6 -1 -7 -9 -4 -18 7
-21 14 -7 14 6 0 13 -4 16 -10z m1645 -454 c0 -3 -4 -8 -10 -11 -5 -3 -10 -1
-10 4 0 6 5 11 10 11 6 0 10 -2 10 -4z m8393 -914 c20 -31 33 -73 47 -160 198
-1158 936 -2197 1975 -2777 376 -210 840 -374 1247 -440 104 -17 110 -20 285
-117 l178 -100 -106 6 c-218 12 -557 70 -794 137 -710 201 -1312 560 -1835
1095 -160 164 -243 260 -372 434 -426 575 -692 1261 -773 1990 -8 74 -15 155
-15 180 l0 45 68 -125 c38 -69 81 -144 95 -168z m-2016 -214 c-3 -8 -6 -5 -6
6 -1 11 2 17 5 13 3 -3 4 -12 1 -19z m550 -1811 c2 -4 -1 -6 -7 -5 -7 2 -16
-7 -21 -20 -5 -14 -5 -21 0 -17 6 3 6 -6 1 -24 -4 -16 -5 -33 -2 -37 4 -4 -1
-4 -10 -1 -14 5 -18 1 -18 -18 0 -14 -4 -25 -9 -25 -33 0 -262 -34 -346 -51
-196 -41 -434 -123 -607 -210 l-81 -41 22 34 c12 18 47 76 78 129 l56 96 99
37 c192 71 419 126 625 151 115 14 212 15 220 2z m-2182 -1541 c-120 -218
-221 -532 -266 -827 -18 -118 -22 -186 -22 -374 0 -248 11 -360 58 -570 141
-640 534 -1214 1085 -1590 47 -31 94 -66 106 -76 11 -11 24 -16 27 -12 4 3 7
1 7 -6 0 -7 4 -10 9 -6 16 9 22 -12 7 -24 -11 -9 -16 -9 -22 0 -5 8 -3 9 6 4
9 -5 11 -4 6 4 -14 22 -23 1 -21 -46 2 -33 0 -42 -5 -28 -7 16 -9 17 -9 3 -1
-9 -8 -24 -17 -32 -8 -9 -12 -16 -7 -16 5 0 14 5 20 11 9 9 11 8 9 -4 -1 -9
-4 -19 -7 -22 -3 -3 -45 19 -92 47 -655 398 -1114 1044 -1271 1785 -76 362
-78 775 -6 1129 27 131 65 268 101 368 28 77 34 84 102 139 40 32 108 91 152
132 44 41 81 74 83 75 1 0 -13 -29 -33 -64z m2701 -2651 c-10 -8 -15 -19 -10
-26 4 -7 3 -10 -3 -6 -5 3 -10 0 -10 -8 0 -11 4 -12 14 -4 7 6 10 16 7 21 -4
6 3 5 15 -1 11 -7 21 -14 21 -17 0 -3 -6 -2 -12 2 -10 5 -10 4 -1 -6 6 -7 24
-12 38 -12 17 0 22 -3 15 -8 -9 -6 -7 -10 8 -14 11 -4 19 -12 18 -19 -6 -26
-19 -47 -26 -42 -5 3 -8 -3 -8 -12 0 -10 -22 -57 -50 -105 -344 -588 -546
-1240 -603 -1941 -15 -191 -7 -665 15 -847 82 -671 282 -1260 620 -1823 339
-564 820 -1067 1371 -1433 583 -387 1223 -626 1910 -714 300 -38 721 -49 960
-24 508 52 874 138 1302 306 84 32 158 56 164 52 7 -4 9 -3 6 3 -3 5 10 16 29
25 23 10 36 12 41 5 3 -5 1 -7 -5 -3 -6 3 -13 2 -17 -4 -3 -5 -2 -10 2 -10 5
0 16 -16 25 -36 18 -39 4 -32 -16 8 -6 12 -20 24 -31 25 -11 2 -15 0 -8 -3 7
-3 27 -31 44 -61 32 -56 32 -56 50 -35 20 26 26 27 26 7 0 -8 -4 -12 -9 -9 -4
3 -8 1 -8 -4 0 -23 -361 -167 -605 -241 -457 -139 -806 -191 -1315 -196 -342
-4 -483 4 -732 40 -793 116 -1532 428 -2173 920 -555 426 -1015 985 -1331
1616 -653 1306 -656 2870 -9 4167 89 179 208 386 217 377 2 -3 5 1 5 8 0 20
52 97 66 97 7 -1 4 -7 -7 -15z m-1701 -975 c3 -6 -1 -7 -9 -4 -18 7 -21 14 -7
14 6 0 13 -4 16 -10z m-1166 -719 c354 -466 579 -1047 642 -1656 23 -223 7
-785 -22 -785 -5 0 -9 5 -9 12 0 6 -3 8 -6 5 -4 -4 -1 -13 6 -22 14 -16 3 -20
-19 -6 -7 5 -11 13 -8 19 4 5 -6 9 -21 10 -54 0 -63 2 -57 12 8 13 -8 13 -22
-1 -8 -8 -9 15 -4 83 3 51 6 219 5 373 -1 303 -13 417 -69 669 -88 394 -279
817 -512 1133 -29 40 -53 76 -53 80 0 21 65 182 71 175 4 -4 39 -49 78 -101z
m-2732 -3107 c8 -17 8 -24 1 -22 -13 5 -31 48 -20 48 4 0 12 -12 19 -26z m81
-59 c-3 -3 -9 2 -12 12 -6 14 -5 15 5 6 7 -7 10 -15 7 -18z m-148 0 c0 -7 -30
-13 -34 -7 -3 4 4 9 15 9 10 1 19 0 19 -2z m20 -15 c0 -5 -10 -15 -22 -21
l-23 -12 20 21 c23 24 25 25 25 12z m11550 -1835 c0 -2 -6 -5 -13 -8 -8 -3
-14 1 -14 8 0 7 6 11 14 8 7 -3 13 -6 13 -8z"/>
<path d="M9156 40823 c-6 -14 -5 -15 5 -6 7 7 10 15 7 18 -3 3 -9 -2 -12 -12z"/>
<path d="M60685 29000 c3 -5 11 -10 16 -10 6 0 7 5 4 10 -3 6 -11 10 -16 10
-6 0 -7 -4 -4 -10z"/>
<path d="M8667 25136 c-10 -8 -14 -16 -10 -19 5 -3 14 3 21 14 14 22 13 23
-11 5z"/>
<path d="M56111 17093 c-1 -21 3 -27 20 -28 9 -1 16 5 16 12 0 8 -6 12 -13 9
-7 -3 -15 0 -18 7 -3 9 -5 9 -5 0z"/>
<path d="M52750 14321 c-7 -15 -7 -21 0 -21 12 0 25 28 17 36 -3 3 -10 -4 -17
-15z"/>
<path d="M48205 3500 c-3 -5 -5 -10 -3 -11 33 -8 38 -7 27 7 -14 17 -16 17
-24 4z"/>
<path d="M54006 8211 c-4 -5 -3 -18 1 -29 8 -18 9 -18 27 -1 18 18 18 18 -3
14 -17 -3 -21 0 -17 10 6 17 0 20 -8 6z"/>
<path d="M5155 24521 c-3 -5 -2 -12 3 -15 5 -3 9 1 9 9 0 17 -3 19 -12 6z"/>
<path d="M5231 24453 c-1 -12 4 -25 9 -28 12 -7 12 2 0 30 -8 19 -9 19 -9 -2z"/>
</g>
</svg>
